<svg xmlns="http://www.w3.org/2000/svg" xmlns:xlink="http://www.w3.org/1999/xlink" zoomAndPan="magnify" preserveAspectRatio="xMidYMid meet" version="1.0" viewBox="6.08 153.32 357.73 68.09"><defs><g/></defs><path fill="#f4f6fc" d="M 6.082031 153.320312 L 363.808594 153.320312 L 363.808594 221.414062 L 6.082031 221.414062 L 6.082031 153.320312 " fill-opacity="1" fill-rule="nonzero"/><g fill="#000000" fill-opacity="1"><g transform="translate(11.90723, 207.8581)"><g><path d="M 23.445312 -34.097656 C 23.445312 -38.984375 20.792969 -41.585938 15.957031 -41.585938 L 10.136719 -41.585938 C 5.25 -41.585938 2.597656 -38.984375 2.597656 -34.097656 L 2.597656 -7.484375 C 2.597656 -2.597656 5.25 0 10.136719 0 L 15.957031 0 C 20.792969 0 23.445312 -2.597656 23.445312 -7.484375 L 23.445312 -13.097656 C 23.445312 -13.617188 23.132812 -13.929688 22.613281 -13.929688 L 17.414062 -13.929688 C 16.84375 -13.929688 16.582031 -13.617188 16.582031 -13.097656 L 16.582031 -8.941406 C 16.582031 -7.539062 15.855469 -6.863281 14.503906 -6.863281 L 11.800781 -6.863281 C 10.449219 -6.863281 9.71875 -7.539062 9.71875 -8.941406 L 9.71875 -32.644531 C 9.71875 -33.996094 10.394531 -34.722656 11.800781 -34.722656 L 14.503906 -34.722656 C 15.855469 -34.722656 16.582031 -33.996094 16.582031 -32.644531 L 16.582031 -28.484375 C 16.582031 -27.964844 16.84375 -27.652344 17.414062 -27.652344 L 22.613281 -27.652344 C 23.132812 -27.652344 23.445312 -27.964844 23.445312 -28.484375 Z M 23.445312 -34.097656 "/></g></g></g><g fill="#000000" fill-opacity="1"><g transform="translate(37.949489, 207.8581)"><g><path d="M 2.597656 -7.484375 C 2.597656 -2.597656 5.199219 0 10.085938 0 L 15.90625 0 C 20.792969 0 23.390625 -2.597656 23.390625 -7.484375 L 23.390625 -34.097656 C 23.390625 -38.984375 20.792969 -41.585938 15.90625 -41.585938 L 10.085938 -41.585938 C 5.199219 -41.585938 2.597656 -38.984375 2.597656 -34.097656 Z M 11.589844 -6.707031 C 10.242188 -6.707031 9.511719 -7.382812 9.511719 -8.785156 L 9.511719 -32.800781 C 9.511719 -34.152344 10.242188 -34.878906 11.589844 -34.878906 L 14.605469 -34.878906 C 15.957031 -34.878906 16.6875 -34.152344 16.6875 -32.800781 L 16.6875 -8.785156 C 16.6875 -7.382812 15.957031 -6.707031 14.605469 -6.707031 Z M 11.589844 -6.707031 "/></g></g></g><g fill="#000000" fill-opacity="1"><g transform="translate(63.939769, 207.8581)"><g><path d="M 2.597656 -0.832031 C 2.597656 -0.261719 2.859375 0 3.429688 0 L 15.90625 0 C 20.792969 0 23.390625 -2.597656 23.390625 -7.484375 L 23.390625 -34.046875 C 23.390625 -38.933594 20.792969 -41.585938 15.90625 -41.585938 L 3.429688 -41.585938 C 2.859375 -41.585938 2.597656 -41.273438 2.597656 -40.753906 Z M 9.667969 -6.863281 L 9.667969 -34.722656 L 14.449219 -34.722656 C 15.800781 -34.722656 16.53125 -33.996094 16.53125 -32.59375 L 16.53125 -8.941406 C 16.53125 -7.539062 15.800781 -6.863281 14.449219 -6.863281 Z M 9.667969 -6.863281 "/></g></g></g><g fill="#000000" fill-opacity="1"><g transform="translate(89.930044, 207.8581)"><g><path d="M 23.339844 -40.753906 C 23.339844 -41.273438 23.132812 -41.585938 22.507812 -41.585938 L 3.378906 -41.585938 C 2.910156 -41.585938 2.597656 -41.273438 2.597656 -40.753906 L 2.597656 -0.832031 C 2.597656 -0.3125 2.910156 0 3.378906 0 L 22.507812 0 C 23.132812 0 23.339844 -0.3125 23.339844 -0.832031 L 23.339844 -6.03125 C 23.339844 -6.601562 23.132812 -6.863281 22.507812 -6.863281 L 9.511719 -6.863281 L 9.511719 -17.363281 L 19.441406 -17.363281 C 19.960938 -17.363281 20.273438 -17.671875 20.273438 -18.246094 L 20.273438 -23.390625 C 20.273438 -23.964844 19.960938 -24.273438 19.441406 -24.273438 L 9.511719 -24.273438 L 9.511719 -34.671875 L 22.507812 -34.671875 C 23.132812 -34.671875 23.339844 -35.035156 23.339844 -35.554688 Z M 23.339844 -40.753906 "/></g></g></g><g fill="#000000" fill-opacity="1"><g transform="translate(115.868347, 207.8581)"><g><path d="M 17.570312 -41.585938 C 16.996094 -41.585938 16.53125 -41.117188 16.53125 -40.546875 L 16.53125 -8.941406 C 16.53125 -7.539062 15.800781 -6.863281 14.449219 -6.863281 L 11.746094 -6.863281 C 10.394531 -6.863281 9.667969 -7.539062 9.667969 -8.941406 L 9.667969 -40.546875 C 9.667969 -41.117188 9.199219 -41.585938 8.628906 -41.585938 L 3.640625 -41.585938 C 3.066406 -41.585938 2.597656 -41.117188 2.597656 -40.546875 L 2.597656 -7.484375 C 2.597656 -2.597656 5.199219 0 10.085938 0 L 15.90625 0 C 20.792969 0 23.390625 -2.597656 23.390625 -7.484375 L 23.390625 -40.546875 C 23.390625 -41.117188 22.921875 -41.585938 22.351562 -41.585938 Z M 17.570312 -41.585938 "/></g></g></g><g fill="#000000" fill-opacity="1"><g transform="translate(141.858627, 207.8581)"><g><path d="M 2.390625 -41.585938 C 1.871094 -41.585938 1.558594 -41.273438 1.558594 -40.753906 L 1.558594 -35.554688 C 1.558594 -35.035156 1.871094 -34.722656 2.390625 -34.722656 L 8.421875 -34.722656 L 8.421875 -0.832031 C 8.421875 -0.261719 8.734375 0 9.253906 0 L 14.660156 0 C 15.230469 0 15.492188 -0.261719 15.492188 -0.832031 L 15.492188 -34.722656 L 21.519531 -34.722656 C 22.09375 -34.722656 22.351562 -35.035156 22.351562 -35.554688 L 22.351562 -40.753906 C 22.351562 -41.273438 22.09375 -41.585938 21.519531 -41.585938 Z M 2.390625 -41.585938 "/></g></g></g><g fill="#000000" fill-opacity="1"><g transform="translate(165.769689, 207.8581)"><g><path d="M 10.085938 -41.585938 C 5.25 -41.585938 2.597656 -38.984375 2.597656 -34.097656 L 2.597656 -21.832031 C 2.597656 -20.84375 3.066406 -20.21875 4.003906 -19.910156 L 16.320312 -15.855469 L 16.320312 -8.941406 C 16.320312 -7.539062 15.59375 -6.863281 14.242188 -6.863281 L 11.746094 -6.863281 C 10.449219 -6.863281 9.667969 -7.539062 9.667969 -8.941406 L 9.667969 -12.941406 C 9.667969 -13.515625 9.410156 -13.773438 8.835938 -13.773438 L 3.429688 -13.773438 C 2.910156 -13.773438 2.597656 -13.515625 2.597656 -12.941406 L 2.597656 -7.484375 C 2.597656 -2.597656 5.25 0 10.085938 0 L 15.90625 0 C 20.792969 0 23.390625 -2.597656 23.390625 -7.484375 L 23.390625 -19.492188 C 23.390625 -20.480469 22.921875 -21.050781 22.039062 -21.417969 L 9.667969 -25.472656 L 9.667969 -32.644531 C 9.667969 -33.996094 10.449219 -34.722656 11.746094 -34.722656 L 14.242188 -34.722656 C 15.644531 -34.722656 16.320312 -33.996094 16.320312 -32.644531 L 16.320312 -28.589844 C 16.320312 -28.070312 16.632812 -27.757812 17.152344 -27.757812 L 22.558594 -27.757812 C 23.132812 -27.757812 23.390625 -28.070312 23.390625 -28.589844 L 23.390625 -34.097656 C 23.390625 -38.984375 20.792969 -41.585938 15.90625 -41.585938 Z M 10.085938 -41.585938 "/></g></g></g><g fill="#000000" fill-opacity="1"><g transform="translate(191.759968, 207.8581)"><g><path d="M 27.652344 0 C 28.277344 0 28.484375 -0.3125 28.382812 -0.882812 L 19.753906 -40.855469 C 19.648438 -41.375 19.335938 -41.585938 18.867188 -41.585938 L 11.644531 -41.585938 C 11.175781 -41.585938 10.863281 -41.375 10.761719 -40.855469 L 2.132812 -0.882812 C 1.976562 -0.3125 2.234375 0 2.808594 0 L 8.367188 0 C 8.835938 0 9.097656 -0.261719 9.199219 -0.726562 L 10.605469 -8.316406 L 19.855469 -8.316406 L 21.3125 -0.726562 C 21.417969 -0.261719 21.675781 0 22.144531 0 Z M 18.558594 -14.347656 L 11.902344 -14.347656 L 15.230469 -32.488281 Z M 18.558594 -14.347656 "/></g></g></g><g fill="#000000" fill-opacity="1"><g transform="translate(222.220572, 207.8581)"><g><path d="M 20.742188 -41.585938 C 20.117188 -41.585938 19.753906 -41.273438 19.597656 -40.648438 L 14.085938 -12.789062 L 8.628906 -40.648438 C 8.472656 -41.273438 8.109375 -41.585938 7.484375 -41.585938 L 2.546875 -41.585938 C 1.765625 -41.585938 1.457031 -41.167969 1.613281 -40.441406 L 10.34375 -0.9375 C 10.5 -0.3125 10.863281 0 11.488281 0 L 16.6875 0 C 17.308594 0 17.671875 -0.3125 17.828125 -0.9375 L 26.613281 -40.441406 C 26.769531 -41.167969 26.457031 -41.585938 25.679688 -41.585938 Z M 20.742188 -41.585938 "/></g></g></g><g fill="#000000" fill-opacity="1"><g transform="translate(250.446014, 207.8581)"><g><path d="M 27.652344 0 C 28.277344 0 28.484375 -0.3125 28.382812 -0.882812 L 19.753906 -40.855469 C 19.648438 -41.375 19.335938 -41.585938 18.867188 -41.585938 L 11.644531 -41.585938 C 11.175781 -41.585938 10.863281 -41.375 10.761719 -40.855469 L 2.132812 -0.882812 C 1.976562 -0.3125 2.234375 0 2.808594 0 L 8.367188 0 C 8.835938 0 9.097656 -0.261719 9.199219 -0.726562 L 10.605469 -8.316406 L 19.855469 -8.316406 L 21.3125 -0.726562 C 21.417969 -0.261719 21.675781 0 22.144531 0 Z M 18.558594 -14.347656 L 11.902344 -14.347656 L 15.230469 -32.488281 Z M 18.558594 -14.347656 "/></g></g></g><g fill="#000000" fill-opacity="1"><g transform="translate(280.906619, 207.8581)"><g/></g></g><g fill="#000000" fill-opacity="1"><g transform="translate(293.901766, 207.8581)"><g><path d="M 11.589844 -25.523438 L 17.882812 -40.390625 C 18.195312 -41.117188 17.882812 -41.585938 17.101562 -41.585938 L 11.695312 -41.585938 C 11.070312 -41.585938 10.707031 -41.324219 10.5 -40.804688 L 3.117188 -23.234375 C 2.753906 -22.300781 2.597656 -21.625 2.597656 -20.636719 L 2.597656 -7.277344 C 2.597656 -2.546875 5.144531 0 9.875 0 L 16.113281 0 C 20.84375 0 23.390625 -2.546875 23.390625 -7.277344 L 23.390625 -18.246094 C 23.390625 -22.976562 20.84375 -25.523438 16.113281 -25.523438 Z M 11.539062 -6.863281 C 10.1875 -6.863281 9.460938 -7.589844 9.460938 -8.941406 L 9.460938 -16.582031 C 9.460938 -17.933594 10.1875 -18.660156 11.539062 -18.660156 L 14.449219 -18.660156 C 15.800781 -18.660156 16.53125 -17.933594 16.53125 -16.582031 L 16.53125 -8.941406 C 16.53125 -7.589844 15.800781 -6.863281 14.449219 -6.863281 Z M 11.539062 -6.863281 "/></g></g></g><g fill="#000000" fill-opacity="1"><g transform="translate(319.89203, 207.8581)"><g><path d="M 2.597656 -1.039062 C 2.597656 -0.363281 2.964844 0 3.640625 0 L 8.367188 0 C 9.042969 0 9.410156 -0.363281 9.410156 -1.039062 L 9.410156 -5.820312 C 9.410156 -6.496094 9.042969 -6.863281 8.367188 -6.863281 L 3.640625 -6.863281 C 2.964844 -6.863281 2.597656 -6.496094 2.597656 -5.820312 Z M 2.597656 -1.039062 "/></g></g></g><g fill="#000000" fill-opacity="1"><g transform="translate(331.899545, 207.8581)"><g><path d="M 2.597656 -7.484375 C 2.597656 -2.597656 5.199219 0 10.085938 0 L 15.90625 0 C 20.792969 0 23.390625 -2.597656 23.390625 -7.484375 L 23.390625 -34.097656 C 23.390625 -38.984375 20.792969 -41.585938 15.90625 -41.585938 L 10.085938 -41.585938 C 5.199219 -41.585938 2.597656 -38.984375 2.597656 -34.097656 Z M 11.589844 -6.707031 C 10.242188 -6.707031 9.511719 -7.382812 9.511719 -8.785156 L 9.511719 -32.800781 C 9.511719 -34.152344 10.242188 -34.878906 11.589844 -34.878906 L 14.605469 -34.878906 C 15.957031 -34.878906 16.6875 -34.152344 16.6875 -32.800781 L 16.6875 -8.785156 C 16.6875 -7.382812 15.957031 -6.707031 14.605469 -6.707031 Z M 11.589844 -6.707031 "/></g></g></g></svg>